<svg height='300px' width='300px' fill="#000000" xmlns:dc="http://purl.org/dc/elements/1.1/" xmlns:cc="http://creativecommons.org/ns#" xmlns:rdf="http://www.w3.org/1999/02/22-rdf-syntax-ns#" xmlns:svg="http://www.w3.org/2000/svg" xmlns="http://www.w3.org/2000/svg" xmlns:sodipodi="http://sodipodi.sourceforge.net/DTD/sodipodi-0.dtd" xmlns:inkscape="http://www.inkscape.org/namespaces/inkscape" version="1.1" x="0px" y="0px" viewBox="0 0 100 100">
  <g transform="translate(0,-952.36218)">
    <path style="font-size:medium;font-style:normal;font-variant:normal;font-weight:normal;font-stretch:normal;text-indent:0;text-align:start;text-decoration:none;line-height:normal;letter-spacing:normal;word-spacing:normal;text-transform:none;direction:ltr;block-progression:tb;writing-mode:lr-tb;text-anchor:start;baseline-shift:baseline;opacity:1;color:#000000;fill:#000000;fill-opacity:1;stroke:none;stroke-width:3.99999976000000010;marker:none;visibility:visible;display:inline;overflow:visible;enable-background:accumulate;font-family:Sans;-inkscape-font-specification:Sans" d="M 46 5 C 43.739608 5 41.646875 5.73039 40.1875 7.1875 C 39.181301 8.19214 38.659717 9.54658 38.34375 11 L 34 11 C 32.372595 11 31 12.37259 31 14 L 31 17 L 26 17 C 21.602597 17 18 20.6026 18 25 L 18 87 C 18 91.3974 21.602601 95 26 95 L 74 95 C 78.397399 95 82 91.3974 82 87 L 82 25 C 82 20.6026 78.397403 17 74 17 L 69 17 L 69 14 C 69 12.37259 67.627405 11 66 11 L 61.65625 11 C 61.337465 9.547 60.786837 8.19465 59.78125 7.1875 C 58.326565 5.73055 56.260392 5 54 5 L 46 5 z M 46 9 L 54 9 C 55.420098 9 56.346782 9.40832 56.96875 10.03125 C 57.590718 10.65418 57.995009 11.57609 58 13 A 2.0001999 2.0001999 0 0 0 60 15 L 65 15 L 65 23 L 35 23 L 35 15 L 40 15 A 2.0001999 2.0001999 0 0 0 42 12.96875 C 41.995 11.55246 42.407518 10.65402 43.03125 10.03125 C 43.654982 9.40848 44.579902 9 46 9 z M 26 21 L 31 21 L 31 24 C 31 25.62741 32.372595 27 34 27 L 66 27 C 67.627405 27 69 25.62741 69 24 L 69 21 L 74 21 C 76.250577 21 78 22.74942 78 25 L 78 87 C 78 89.2506 76.250581 91 74 91 L 26 91 C 23.749419 91 22 89.2506 22 87 L 22 25 C 22 22.74942 23.749423 21 26 21 z M 32 33 C 29.262266 33 27 35.26226 27 38 C 27 40.73773 29.262266 43 32 43 C 34.737735 43 37 40.73773 37 38 C 37 35.26226 34.737735 33 32 33 z M 44 36 C 42.89543 36 42 36.8954 42 38 C 42 39.1046 42.89543 40 44 40 L 71 40 C 72.10457 40 73 39.1046 73 38 C 73 36.8954 72.10457 36 71 36 L 44 36 z M 32 37 C 32.575977 37 33 37.42402 33 38 C 33 38.57597 32.575977 39 32 39 C 31.424024 39 31 38.57597 31 38 C 31 37.42402 31.424024 37 32 37 z M 32 47 C 29.262266 47 27 49.2622 27 52 C 27 54.7377 29.262266 57 32 57 C 34.737735 57 37 54.7377 37 52 C 37 49.2622 34.737735 47 32 47 z M 44 50 C 42.89543 50 42 50.8954 42 52 C 42 53.1046 42.89543 54 44 54 L 71 54 C 72.10457 54 73 53.1046 73 52 C 73 50.8954 72.10457 50 71 50 L 44 50 z M 32 51 C 32.575977 51 33 51.424 33 52 C 33 52.5759 32.575977 53 32 53 C 31.424024 53 31 52.5759 31 52 C 31 51.424 31.424024 51 32 51 z M 32 61 C 29.262266 61 27 63.2622 27 66 C 27 68.7377 29.262266 71 32 71 C 34.737735 71 37 68.7377 37 66 C 37 63.2622 34.737735 61 32 61 z M 44 64 C 42.89543 64 42 64.8954 42 66 C 42 67.1046 42.89543 68 44 68 L 71 68 C 72.10457 68 73 67.1046 73 66 C 73 64.8954 72.10457 64 71 64 L 44 64 z M 32 65 C 32.575977 65 33 65.424 33 66 C 33 66.5759 32.575977 67 32 67 C 31.424024 67 31 66.5759 31 66 C 31 65.424 31.424024 65 32 65 z M 32 75 C 29.262266 75 27 77.2622 27 80 C 27 82.7377 29.262266 85 32 85 C 34.737735 85 37 82.7377 37 80 C 37 77.2622 34.737735 75 32 75 z M 44 78 C 42.89543 78 42 78.8954 42 80 C 42 81.1046 42.89543 82 44 82 L 71 82 C 72.10457 82 73 81.1046 73 80 C 73 78.8954 72.10457 78 71 78 L 44 78 z M 32 79 C 32.575977 79 33 79.424 33 80 C 33 80.5759 32.575977 81 32 81 C 31.424024 81 31 80.5759 31 80 C 31 79.424 31.424024 79 32 79 z " transform="translate(0,952.36218)"></path>
  </g>
</svg>