<?xml version="1.0" encoding="UTF-8"?>
<svg width="218px" height="224px" viewBox="0 0 218 224" version="1.1"
  xmlns="http://www.w3.org/2000/svg" xmlns:xlink="http://www.w3.org/1999/xlink">
  <title>copy-svg</title>
  <defs>
    <linearGradient x1="67.6733882%" y1="40.3110476%" x2="40.8075146%" y2="81.641044%"
      id="linearGradient-9hrouhn034-1">
      <stop stop-color="#0052CC" offset="18%"></stop>
      <stop stop-color="#2684FF" offset="100%"></stop>
    </linearGradient>
    <linearGradient x1="32.6334015%" y1="-23.3247078%" x2="59.3414537%" y2="17.8549121%"
      id="linearGradient-9hrouhn034-2">
      <stop stop-color="#0052CC" offset="18%"></stop>
      <stop stop-color="#2684FF" offset="100%"></stop>
    </linearGradient>
  </defs>
  <g id="Page-1" stroke="none" stroke-width="1" fill="none" fill-rule="evenodd">
    <g id="Group" transform="translate(1.000000, 0.000000)" fill-rule="nonzero">
      <g id="blue-square-emoji-clipart-original"
        transform="translate(113.500000, 112.000000) rotate(-45.000000) translate(-113.500000, -112.000000) translate(83.000000, 81.000000)"
        fill="#2684FF">
        <path
          d="M61,55.1111111 C61,58.9155 57.96525,62 54.2222222,62 L6.77777778,62 C3.03475,62 0,58.9155 0,55.1111111 L0,6.88888889 C0,3.0845 3.03475,0 6.77777778,0 L54.2222222,0 C57.96525,0 61,3.0845 61,6.88888889 L61,55.1111111 Z"
          id="Path"></path>
      </g>
      <g id="jira">
        <path
          d="M214.057683,105.73 L117.667683,9.34 L108.327683,0 L35.767683,72.56 L2.58768297,105.73 C-0.862560989,109.198027 -0.862560989,114.801973 2.58768297,118.27 L68.877683,184.56 L108.327683,224 L180.877683,151.44 L182.007683,150.32 L214.057683,118.32 C215.735223,116.654721 216.678693,114.388746 216.678693,112.025 C216.678693,109.661254 215.735223,107.395279 214.057683,105.73 Z M108.327683,145.12 L75.207683,112 L108.327683,78.88 L141.437683,112 L108.327683,145.12 Z"
          id="Shape" fill="#2684FF"></path>
        <path
          d="M108.327683,78.88 C86.6439057,57.2011777 86.5366816,22.0808201 108.087683,0.27 L35.617683,72.71 L75.057683,112.15 L108.327683,78.88 Z"
          id="Path" fill="url(#linearGradient-9hrouhn034-1)"></path>
        <path
          d="M141.527683,111.91 L108.327683,145.12 C130.100097,166.898316 130.100097,202.201684 108.327683,223.98 L180.997683,151.35 L141.527683,111.91 Z"
          id="Path" fill="url(#linearGradient-9hrouhn034-2)"></path>
      </g>
      <g id="Merlin2525_Copy_Business_Stamp_1"
        transform="translate(108.080787, 111.173492) rotate(-315.000000) translate(-108.080787, -111.173492) translate(31.951545, 35.173492)"
        fill="#FFFFFF" stroke="#FFFFFF">
        <g id="g3695"
          transform="translate(76.129242, 76.000000) rotate(-44.856962) translate(-76.129242, -76.000000) translate(4.039974, 40.517314)">
          <path
            d="M7.35846123,0 C3.28187371,0 0,3.0408165 0,6.81797422 L0,64.1473974 C0,67.9245552 3.28187371,70.9653717 7.35846123,70.9653717 L136.820074,70.9653717 C140.896662,70.9653717 144.178536,67.9245552 144.178536,64.1473974 L144.178536,6.81797422 C144.178536,3.0408165 140.896662,0 136.820074,0 L7.35846123,0 L7.35846123,0 Z M10.0357322,2.89155157 L134.146693,2.89155157 C137.640911,2.89155157 140.453945,5.49796571 140.453945,8.73552947 L140.453945,62.2468871 C140.453945,65.4844509 137.640911,68.090865 134.146693,68.090865 L10.0357322,68.090865 C6.54151435,68.090865 3.72847974,65.4844509 3.72847974,62.2468871 L3.72847974,8.73552947 C3.72847974,5.49796571 6.54151435,2.89155157 10.0357322,2.89155157 Z"
            id="path3213" stroke-opacity="0.55708" stroke-width="0.62879525" stroke-linecap="round"
            stroke-linejoin="round"></path>
          <g id="text3215" transform="translate(29.444883, 27.031320)" stroke-width="1.04799208">
            <path
              d="M8.72923744,16.9007841 C5.88676898,16.9007841 3.71707413,16.1683389 2.22015287,14.7034484 C0.740050958,13.2385579 0,11.1581018 0,8.46208 C0,7.12186107 0.227061089,5.92968958 0.681183268,4.88556553 C1.13530545,3.82585753 1.75762103,2.93757289 2.54813,2.2207116 C3.33863898,1.48826637 4.28052202,0.935036464 5.37377912,0.561021879 C6.46703621,0.187026773 7.65279968,0 8.93106952,0 C9.67112047,0 10.3438941,0.0545632737 10.9493903,0.163631381 C11.5548865,0.257154508 12.0846958,0.374034066 12.5388179,0.514270055 C12.9929296,0.638961064 13.3713753,0.771424563 13.6741234,0.911660553 C13.9768557,1.0519355 14.1955072,1.16102309 14.3300776,1.23892332 L13.1947722,4.18428818 C12.6565533,3.91937579 12.0258281,3.69339403 11.3025964,3.50638674 C10.5961842,3.31939406 9.78885585,3.22589041 8.8806115,3.2258758 C8.27511526,3.22589041 7.67802869,3.31939406 7.08935179,3.50638674 C6.51749423,3.69340864 6.00450436,3.99728089 5.55038218,4.41804729 C5.11307409,4.82324437 4.75987321,5.35308376 4.49076377,6.00760928 C4.22164907,6.66213481 4.08709435,7.4569158 4.08709961,8.39195227 C4.08709435,9.13998144 4.17119105,9.84125879 4.33938971,10.4957843 C4.52439719,11.1347259 4.81032597,11.6879558 5.19717605,12.155474 C5.60083495,12.6229971 6.12223974,12.9970069 6.76137466,13.2775178 C7.40050958,13.5424497 8.17419922,13.6749132 9.08244358,13.6749083 C9.65430113,13.6749132 10.167291,13.6437404 10.6214132,13.5814046 C11.0755248,13.5190738 11.4791995,13.448946 11.8324057,13.3710214 C12.1856013,13.2775227 12.4967696,13.176227 12.765879,13.0671346 C13.034978,12.9580519 13.2788531,12.8567563 13.4975203,12.7632477 L14.5823677,15.6852367 C14.0273295,15.9969204 13.2452302,16.2774265 12.2360698,16.5267695 C11.2269094,16.7761126 10.0579653,16.9007841 8.72923744,16.9007841"
              id="path3407"></path>
            <path
              d="M26.4841532,8.46597599 C26.4841532,9.26075698 26.585064,9.97761827 26.7869013,10.6165599 C27.0055475,11.2555014 27.3082956,11.8087313 27.6951457,12.2762496 C28.0988046,12.7281887 28.5865707,13.0788225 29.1584282,13.3281656 C29.7302858,13.5775135 30.38624,13.7021802 31.126291,13.7021802 C31.8495226,13.7021802 32.4970672,13.5775135 33.0689248,13.3281656 C33.6576017,13.0788274 34.1453625,12.7281839 34.5322073,12.2762496 C34.935861,11.8087362 35.2386196,11.2555014 35.4404517,10.6165599 C35.6590874,9.97761827 35.7684288,9.26075698 35.7684288,8.46597599 C35.7684288,7.67119499 35.6590874,6.9543337 35.4404517,6.31539212 C35.2386091,5.6608666 34.935861,5.10763669 34.5322073,4.6557024 C34.145352,4.18819877 33.6576017,3.82975352 33.0689248,3.58041046 C32.4970672,3.33108201 31.8495226,3.20639588 31.126291,3.20639588 C30.38624,3.20639588 29.7302858,3.33887399 29.1584282,3.60378637 C28.5865707,3.85314404 28.0988098,4.21156008 27.6951457,4.67907831 C27.3082956,5.13102721 27.0055527,5.68424251 26.7869013,6.33876803 C26.585064,6.97770962 26.4841532,7.68677893 26.4841532,8.46597599 M39.8302994,8.46597599 C39.8302994,9.85294674 39.6032226,11.0762861 39.1491162,12.1359941 C38.7117976,13.1801182 38.1063171,14.0606108 37.3326274,14.7774721 C36.5589378,15.4787495 35.6338741,16.0086035 34.5574364,16.3670341 C33.4978179,16.7254648 32.3541028,16.9046801 31.126291,16.9046801 C29.9321179,16.9046801 28.8052221,16.7254648 27.7456037,16.3670341 C26.6859853,16.0086083 25.7609216,15.4787495 24.9704126,14.7774721 C24.1799036,14.0606108 23.557588,13.1801182 23.1034658,12.1359941 C22.6493437,11.0762861 22.4222826,9.85294674 22.4222826,8.46597599 C22.4222826,7.07900523 22.6577533,5.86345783 23.1286949,4.81933378 C23.5996364,3.75962578 24.2303616,2.87134114 25.0208706,2.15447985 C25.8281989,1.43761856 26.7532626,0.899972597 27.7960617,0.541541952 C28.8556801,0.183130788 29.9657565,0.00389598527 31.126291,0.00389598527 C32.3204641,0.00389598527 33.4473599,0.183130788 34.5069783,0.541541952 C35.5665968,0.899992077 36.4916604,1.43761856 37.2821694,2.15447985 C38.0726784,2.87134114 38.694994,3.75962578 39.1491162,4.81933378 C39.6032226,5.86345783 39.8302994,7.07900523 39.8302994,8.46597599"
              id="path3409"></path>
            <path
              d="M54.3937454,0.187007293 C57.0007431,0.187007293 59.0022446,0.615585152 60.3982498,1.47268243 C61.794255,2.31421525 62.4922576,3.70118601 62.4922576,5.6335947 C62.4922576,7.58158733 61.7858453,8.991934 60.3730208,9.8646347 C58.9601962,10.7217515 56.9418754,11.1503098 54.3180584,11.1503098 L53.0818369,11.1503098 L53.0818369,16.5735213 L49.1461113,16.5735213 L49.1461113,0.607773702 C50.0038977,0.451953771 50.912142,0.342866184 51.8708444,0.280510939 C52.8295468,0.218194655 53.6705138,0.187007293 54.3937454,0.187007293 M54.6460355,3.29600354 C54.3601015,3.29600354 54.074178,3.30379551 53.7882492,3.31937945 C53.5191345,3.33496339 53.2836637,3.35054733 53.0818369,3.36613127 L53.0818369,8.04131359 L54.3180584,8.04131359 C55.6804249,8.04131359 56.7064047,7.86989998 57.3959976,7.52704354 C58.0855905,7.18420658 58.430387,6.54525525 58.430387,5.61021879 C58.430387,5.15829911 58.3378701,4.78426991 58.1528679,4.48817503 C57.984664,4.19209476 57.7323739,3.95832103 57.3959976,3.78689768 C57.0764196,3.599905 56.6811756,3.47523347 56.2102341,3.4128831 C55.7392874,3.334978 55.2178931,3.29600354 54.6460355,3.29600354"
              id="path3411"></path>
            <path
              d="M77.8777488,7.03907138 C78.5841611,5.93261157 79.2569347,4.82615175 79.8960696,3.71969194 C80.5352045,2.61323212 81.1238814,1.49898033 81.6621003,0.376936575 L86.00149,0.376936575 C85.0427876,2.12233798 84.0504466,3.81319558 83.0244668,5.44950939 C81.9984871,7.08582321 80.9136397,8.72992899 79.7699246,10.3818267 L79.7699246,16.5764433 L75.834199,16.5764433 L75.834199,10.4285786 C74.6904839,8.77668081 73.5972268,7.12478306 72.5544277,5.47288531 C71.528448,3.82098755 70.5361069,2.12233798 69.5774046,0.376936575 L74.1438554,0.376936575 C74.6820742,1.49898033 75.2623415,2.61323212 75.884657,3.71969194 C76.5069726,4.82615175 77.1713365,5.93261157 77.8777488,7.03907138"
              id="path3413"></path>
          </g>
        </g>
      </g>
    </g>
  </g>
</svg>